<svg width="24" height="24" viewBox="0 0 24 24" fill="none" xmlns="http://www.w3.org/2000/svg">
<path d="M21.9375 12C21.9375 17.4885 17.4885 21.9375 12 21.9375C6.5115 21.9375 2.0625 17.4885 2.0625 12C2.0625 6.5115 6.5115 2.0625 12 2.0625C17.4885 2.0625 21.9375 6.5115 21.9375 12Z" fill="#FFE85E"/>
<path d="M15 3H9V1.5H15V3ZM9 3H6V4.5H9V3ZM4.5 9V6H3V9H4.5ZM3 15V9H1.5V15H3ZM6 4.5H4.5V6H6V4.5Z" fill="#FEB12F"/>
<path d="M15 7.5H9V6H15V7.5ZM7.5 15V9H6V15H7.5ZM9 7.5H7.5V9H9V7.5ZM16.5 7.5H15V9H16.5V7.5ZM9 15H7.5V16.5H9V15Z" fill="#DA7203"/>
<path d="M9 16.5H15V18H9V16.5ZM16.5 9V15H18V9H16.5ZM15 16.5H16.5V15H15V16.5Z" fill="#FEB334"/>
<path d="M6 4.5H9V6H6V4.5ZM4.5 9H6V6H4.5V9ZM15 12V13.5H13.5V15H12V16.5H15V15H16.5V12H15ZM9 4.5H10.5V3H9V4.5ZM3 10.5H4.5V9H3V10.5Z" fill="white"/>
<path d="M15 9H9V7.5H15V9ZM13.5 9H7.5V10.5H13.5V9ZM10.5 12H7.5V13.5H10.5V12ZM10.5 10.5H7.5V12H10.5V10.5ZM16.5 9H13.5V10.5H16.5V9ZM12 10.5H10.5V12H12V10.5ZM9 13.5H7.5V15H9V13.5Z" fill="#FFB232"/>
<path d="M22.5 9V15H21V9H22.5ZM18 19.5H19.5V18H18V19.5ZM15 21H18V19.5H15V21ZM19.5 18H21V15H19.5V18ZM19.5 6V9H21V6H19.5ZM15 3V4.5H18V3H15ZM18 4.5V6H19.5V4.5H18Z" fill="#DC7202"/>
<path d="M15 21V22.5H9V21H15ZM6 19.5V21H9V19.5H6ZM3 15V18H4.5V15H3ZM4.5 18V19.5H6V18H4.5Z" fill="#F8AD2E"/>
<path d="M15 1.5H9V0H15V1.5ZM9 1.5H6V3H9V1.5ZM3 6H1.5V9H3V6ZM22.5 9V6H21V9H22.5ZM22.5 9V15H24V9H22.5ZM0 9V15H1.5V9H0ZM6 3H4.5V4.5H6V3ZM4.5 4.5H3V6H4.5V4.5ZM19.5 4.5V3H18V4.5H19.5ZM21 6V4.5H19.5V6H21ZM18 3V1.5H15V3H18ZM9 24H15V22.5H9V24ZM6 21V22.5H9V21H6ZM1.5 15V18H3V15H1.5ZM21 18H22.5V15H21V18ZM4.5 19.5V21H6V19.5H4.5ZM3 18V19.5H4.5V18H3ZM18 21H19.5V19.5H18V21ZM19.5 19.5H21V18H19.5V19.5ZM15 22.5H18V21H15V22.5Z" fill="black"/>
</svg>
