<?xml version="1.0" encoding="utf-8"?>
<!-- Generator: Adobe Illustrator 26.0.2, SVG Export Plug-In . SVG Version: 6.00 Build 0)  -->
<svg version="1.1" id="Layer_1" xmlns="http://www.w3.org/2000/svg" xmlns:xlink="http://www.w3.org/1999/xlink" x="0px" y="0px"
	 viewBox="0 0 780 665" style="enable-background:new 0 0 780 665;" xml:space="preserve">
<style type="text/css">
	.st0{fill:#056f7a;}
	.st1{fill:#FFFFFF;}
</style>
<path class="st0" d="M382.4,640.6l7.6,3.2l7.6-3.2l11.1-4.6c0,0,0,0,0,0c187-77.4,272.9-180.8,312-256l0,0
	c40-76.9,39.7-138.9,39.1-152.4c-0.8-114.9-94.4-208.1-209.5-208.1C486,19.6,428.4,48.7,390,94.4c-38.4-45.7-96-74.8-160.4-74.8
	c-115.1,0-208.8,93.2-209.5,208.1c-0.6,13.5-0.9,75.5,39.1,152.4c39.1,75.2,125,178.6,312,256c0,0,0,0,0,0L382.4,640.6z"/>
<path class="st1" d="M779.9,227.2c-0.5-60.8-24.6-117.9-67.8-160.8C668.7,23.3,611.3-0.4,550.4-0.4C490.1-0.4,432.8,23.2,390,65
	C347.2,23.2,289.9-0.4,229.6-0.4c-61,0-118.4,23.7-161.7,66.8c-43.2,43-67.3,100.1-67.8,160.8c-0.8,18.5,0.1,82.8,41.3,162.1
	c24.8,47.6,60,92.3,104.9,132.8c57.7,52.1,130.8,96.7,217.2,132.5l26.4,10.9l26.4-10.9c194-80.3,282.2-188.5,322.1-265.2
	C779.8,309.9,780.6,245.6,779.9,227.2z M703.1,370.8C666.2,441.6,584,541.9,401.1,617.5l-11.1,4.6l-11.1-4.6
	C196,541.9,113.8,441.6,77,370.8c-37.9-72.9-37.3-131.3-36.8-142.2l0-0.8C40.8,124,125.8,39.6,229.6,39.6
	c56,0,108.9,24.7,145.1,67.7l15.3,18.2l15.3-18.2c36.2-43,89.1-67.7,145.1-67.7c103.8,0,188.8,84.4,189.5,188.2l0,0.8
	C740.4,239.5,741,297.9,703.1,370.8z M249,385.9h65v32.5H212.9V237.2h36V385.9z M300.3,237.2h130.6v32.5h-47v148.7h-36V269.7h-47.5
	V237.2z M453.7,237.2h113.3v32h-77.3v53.3H553v32h-63.2v63.9h-36V237.2z"/>
</svg>
