<svg width="53" height="30" viewBox="0 0 53 30" fill="none" xmlns="http://www.w3.org/2000/svg">
<path d="M52.1159 12.8192L40.7327 1.18318C39.5562 -0.0168179 37.6629 -0.0168177 36.4903 1.19118C35.3216 2.39918 35.3255 4.34718 36.4981 5.54718L42.7351 11.9192H36.7552H3.194C1.53834 11.9192 0.194336 13.2992 0.194336 14.9992C0.194336 16.7032 1.53834 18.0792 3.194 18.0792H42.7351L36.4981 24.4512C35.3255 25.6512 35.3216 27.5992 36.4903 28.8072C37.0786 29.4112 37.846 29.7152 38.6174 29.7152C39.3809 29.7152 40.1484 29.4112 40.7327 28.8152L52.1159 17.1832C52.6807 16.6032 53.0002 15.8192 53.0002 14.9992C53.0002 14.1832 52.6807 13.3992 52.1159 12.8192Z" fill="#3F4548"/>
</svg>
