<?xml version="1.0" encoding="utf-8"?>
<!-- Generator: Adobe Illustrator 25.4.1, SVG Export Plug-In . SVG Version: 6.00 Build 0)  -->
<svg version="1.1" id="Layer_1" xmlns="http://www.w3.org/2000/svg" xmlns:xlink="http://www.w3.org/1999/xlink" x="0px" y="0px"
	 viewBox="0 0 150 169.2" style="enable-background:new 0 0 150 169.2;" xml:space="preserve">
<style type="text/css">
	.st0{fill:url(#SVGID_1_);}
	.st1{fill:url(#SVGID_00000094596133291937081400000011993743134971455930_);}
	.st2{fill:url(#SVGID_00000132809057052748252470000005015621809145158806_);}
	.st3{fill:url(#SVGID_00000160899754065835981200000005096542129061803927_);}
	.st4{fill:#3F3F3F;}
</style>
<linearGradient id="SVGID_1_" gradientUnits="userSpaceOnUse" x1="157.2965" y1="49.945" x2="88.9367" y2="105.9801" gradientTransform="matrix(1 0 0 -1 0 186)">
	<stop  offset="0" style="stop-color:#0050BF"/>
	<stop  offset="0.1939" style="stop-color:#0A67C7"/>
	<stop  offset="0.597" style="stop-color:#24A0DB"/>
	<stop  offset="1" style="stop-color:#41E0F2"/>
</linearGradient>
<path class="st0" d="M78.2,45.7v46.9c0,3.7,2,6.4,6.7,9c6.2,3.5,29.2,10.8,37.5,13.4c4.9,1.5,8.6-2.9,2.9-9.4
	c-4.7-5.4-25.6-28.4-36.3-39.8C83.7,60.2,78.2,55.5,78.2,45.7z"/>
<linearGradient id="SVGID_00000022554032128179076940000006126569401463532213_" gradientUnits="userSpaceOnUse" x1="91.9477" y1="109.5522" x2="129.3858" y2="199.8107" gradientTransform="matrix(1 0 0 -1 0 186)">
	<stop  offset="0" style="stop-color:#0050BF"/>
	<stop  offset="0.3125" style="stop-color:#0A67C7"/>
	<stop  offset="0.597" style="stop-color:#24A0DB"/>
	<stop  offset="1" style="stop-color:#41E0F2"/>
</linearGradient>
<path style="fill:url(#SVGID_00000022554032128179076940000006126569401463532213_);" d="M78.2,92.6V45.7c0-4.9,2.7-10.8,10.5-15.2
	c11.1-6.2,36.7-21,51.2-28.2c10.3-5.1,14.1-1.4,4.9,8.9c-6.6,7.5-38.8,43.4-53.2,59.9C86.1,77.4,79.3,83.7,78.2,92.6z"/>
<linearGradient id="SVGID_00000000188636581488684480000010623687324280191165_" gradientUnits="userSpaceOnUse" x1="58.0522" y1="109.5522" x2="20.6145" y2="199.8107" gradientTransform="matrix(1 0 0 -1 0 186)">
	<stop  offset="0" style="stop-color:#0050BF"/>
	<stop  offset="0.1939" style="stop-color:#0A67C7"/>
	<stop  offset="0.597" style="stop-color:#24A0DB"/>
	<stop  offset="1" style="stop-color:#41E0F2"/>
</linearGradient>
<path style="fill:url(#SVGID_00000000188636581488684480000010623687324280191165_);" d="M71.8,92.6V45.7c0-4.9-2.7-10.8-10.5-15.2
	c-11.1-6.2-36.7-21-51.2-28.2C-0.2-2.8-4,0.9,5.2,11.2c6.6,7.5,38.8,43.4,53.2,59.9C63.9,77.4,70.7,83.7,71.8,92.6z"/>
<linearGradient id="SVGID_00000077292647951976939890000001022920013613307827_" gradientUnits="userSpaceOnUse" x1="-7.296" y1="49.9449" x2="61.0632" y2="105.98" gradientTransform="matrix(1 0 0 -1 0 186)">
	<stop  offset="0" style="stop-color:#0050BF"/>
	<stop  offset="0.1939" style="stop-color:#0A67C7"/>
	<stop  offset="0.597" style="stop-color:#24A0DB"/>
	<stop  offset="1" style="stop-color:#41E0F2"/>
</linearGradient>
<path style="fill:url(#SVGID_00000077292647951976939890000001022920013613307827_);" d="M71.8,45.7v46.9c0,3.7-2,6.4-6.7,9
	c-6.2,3.5-29.2,10.8-37.5,13.4c-4.9,1.5-8.6-2.9-2.9-9.4c4.7-5.4,25.6-28.4,36.3-39.8C66.3,60.2,71.8,55.5,71.8,45.7z"/>
<path class="st4" d="M50.4,169l-11.9-33l-8.9,0.5L18,169h6.8l2.4-7.1h14l2.4,7.1H50.4z M34.3,141.4l4.9,14.4h-9.8L34.3,141.4z
	 M66.9,144.5c-2.7,0-5.8,0.9-8.1,1.7l-0.2-1.3l-5.7,0.3V169h6.5v-16.9c1.9-0.7,4.9-1.3,7-1.3c2.8,0,4.7,0.6,4.7,0.6l1.5-6.1
	C72.6,145.1,70.4,144.5,66.9,144.5z M95.2,144.9h-9.6v-5.7l-4.1,0.4l-2.2,5.3h-3.8L75,151h4.1v9.4c0,7.4,5.8,8.7,10.8,8.7
	c3.2,0,6.2-0.6,6.2-0.6l-0.9-6c0,0-2.2,0.4-5,0.4c-4.1,0-4.6-0.8-4.6-2.5V151h9L95.2,144.9z M97.6,136.5l12.9,16.1L97.3,169h8.1
	l9-11.6l8.9,11.6h8.3l-13.3-16.5l13.3-16.5l-8.6,0.4l-8.5,11l-8.8-11.5L97.6,136.5z"/>
</svg>
