<svg width="130" height="54" viewBox="0 0 130 54" fill="none" xmlns="http://www.w3.org/2000/svg">
<path d="M70.3807 7.31778L61.3169 9.26434V1.91057L70.3807 0V7.31778Z" fill="white"/>
<path fill-rule="evenodd" clip-rule="evenodd" d="M89.2304 11.3912C85.6912 11.3912 83.4167 13.0494 82.1528 14.2029L81.6831 11.9679H73.7386V54L82.7664 52.0895L82.8024 41.8878C84.1022 42.8251 86.0164 44.1589 89.1944 44.1589C95.6578 44.1589 101.544 38.968 101.544 27.5407C101.508 17.0868 95.5499 11.3912 89.2304 11.3912ZM87.0637 36.2283C84.933 36.2283 83.6692 35.4713 82.8024 34.534L82.7664 21.1602C83.7051 20.1148 85.005 19.3938 87.0637 19.3938C90.3497 19.3938 92.625 23.0708 92.625 27.7931C92.625 32.6235 90.3857 36.2283 87.0637 36.2283Z" fill="white"/>
<path fill-rule="evenodd" clip-rule="evenodd" d="M130 27.9012C130 18.6729 125.522 11.3912 116.963 11.3912C108.369 11.3912 103.169 18.6729 103.169 27.8291C103.169 38.6795 109.308 44.1589 118.119 44.1589C122.417 44.1589 125.667 43.1856 128.122 41.8158V34.6061C125.667 35.8318 122.85 36.5888 119.275 36.5888C115.772 36.5888 112.667 35.3631 112.269 31.1095H129.927C129.927 30.9429 129.937 30.5986 129.949 30.1852L129.951 30.0655L129.956 29.9394C129.976 29.2329 130 28.3996 130 27.9012ZM112.161 24.4766C112.161 20.4032 114.653 18.709 116.927 18.709C119.13 18.709 121.477 20.4032 121.477 24.4766H112.161Z" fill="white"/>
<path d="M70.3807 12.004H61.3169V43.5461H70.3807V12.004Z" fill="white"/>
<path d="M51.0246 12.004L51.6022 14.6715C53.7329 10.7784 57.9583 11.5714 59.1136 12.004V20.2951C57.9943 19.8986 54.3832 19.3939 52.2525 22.1696V43.5461H43.2247V12.004H51.0246Z" fill="white"/>
<path d="M33.5474 4.18157L24.7361 6.05605L24.7001 34.9306C24.7001 40.2657 28.7083 44.1949 34.0531 44.1949C37.0139 44.1949 39.1806 43.6542 40.3725 43.0053V35.6876C39.2165 36.1562 33.5114 37.8144 33.5114 32.4793V19.6822H40.3725V12.004H33.5114L33.5474 4.18157Z" fill="white"/>
<path d="M12.2058 19.2136C10.2917 19.2136 9.13639 19.7543 9.13639 21.1602C9.13639 22.6952 11.1253 23.3704 13.5924 24.2081C17.614 25.5738 22.908 27.3712 22.9306 34.0294C22.9306 40.482 17.7664 44.1949 10.2557 44.1949C7.15028 44.1949 3.7557 43.5821 0.397081 42.1402V33.5607C3.43056 35.2189 7.25819 36.4446 10.2557 36.4446C12.2778 36.4446 13.7222 35.9039 13.7222 34.2457C13.7222 32.5453 11.5661 31.7682 8.9636 30.8299C4.99984 29.401 0 27.5985 0 21.5928C0 15.2123 4.875 11.3912 12.2058 11.3912C15.2026 11.3912 18.1642 11.8598 21.161 13.0494V21.5207C18.4167 20.0427 14.9501 19.2136 12.2058 19.2136Z" fill="white"/>
</svg>
